<svg id="Layer_1" data-name="Layer 1" xmlns="http://www.w3.org/2000/svg" viewBox="0 0 32 32"><defs><style>.cls-1{fill:#2c70b7;}</style></defs><title>icon_cta_email</title><path class="cls-1" d="M32,6.29A4.72,4.72,0,0,1,31.12,9a8.49,8.49,0,0,1-2.18,2.2L20.59,17l-.76.54-1,.68q-.38.26-.93.58a5.41,5.41,0,0,1-1,.48,2.83,2.83,0,0,1-.89.16h0a2.82,2.82,0,0,1-.89-.16,5.36,5.36,0,0,1-1-.48q-.54-.32-.93-.58l-1-.68L11.41,17,6.73,13.72,3.07,11.18A8.85,8.85,0,0,1,1,9.12,4.17,4.17,0,0,1,0,6.68,3.6,3.6,0,0,1,.74,4.36a2.55,2.55,0,0,1,2.12-.93H29.14A2.88,2.88,0,0,1,32,6.29Zm0,5.25V25.71a2.87,2.87,0,0,1-2.86,2.86H2.86a2.75,2.75,0,0,1-2-.84,2.75,2.75,0,0,1-.84-2V11.54a9.5,9.5,0,0,0,1.8,1.55q6.46,4.39,8.88,6.16,1,.75,1.65,1.17a10.15,10.15,0,0,0,1.69.86,5.15,5.15,0,0,0,2,.44h0a5.14,5.14,0,0,0,2-.44,10.16,10.16,0,0,0,1.69-.86q.63-.42,1.65-1.17,3-2.2,8.89-6.16A9.9,9.9,0,0,0,32,11.54Z"/></svg>