<svg id="Layer_1" data-name="Layer 1" xmlns="http://www.w3.org/2000/svg" viewBox="0 0 38 38"><defs><style>.cls-1{fill:#a7aaac;}</style></defs><title>icon_tutorial_focus</title><path class="cls-1" d="M14.55,23.18,7.26,11.08a14.14,14.14,0,0,0-1.79,12.1Zm0,0"/><path class="cls-1" d="M17.61,13H31.83A14.22,14.22,0,0,0,22.19,5.2Zm0,0"/><path class="cls-1" d="M13.05,17.38,20.38,4.9c-.46,0-.92-.07-1.39-.07A14.13,14.13,0,0,0,8.38,9.63Zm0,0"/><path class="cls-1" d="M16,32.72l4.49-7.82H6.12a14.22,14.22,0,0,0,10.21,8Zm0,0"/><path class="cls-1" d="M23.43,14.71l7.16,12.43A14.12,14.12,0,0,0,32.5,14.71Zm0,0"/><path class="cls-1" d="M24.89,20.67,17.76,33.11c.41,0,.82.06,1.24.06a14.12,14.12,0,0,0,10.44-4.6Zm0,0"/></svg>