<svg id="Layer_1" data-name="Layer 1" xmlns="http://www.w3.org/2000/svg" viewBox="0 0 32 32"><defs><style>.cls-1{fill:#f7323f;}</style></defs><title>icon_cta_consent_decline</title><path class="cls-1" d="M29.86,8A15.66,15.66,0,0,1,32,16a15.66,15.66,0,0,1-2.14,8A16,16,0,0,1,24,29.85,15.66,15.66,0,0,1,16,32a15.65,15.65,0,0,1-8-2.14A15.92,15.92,0,0,1,2.15,24,15.64,15.64,0,0,1,0,16,15.64,15.64,0,0,1,2.15,8,15.91,15.91,0,0,1,8,2.15,15.64,15.64,0,0,1,16,0a15.65,15.65,0,0,1,8,2.15A15.94,15.94,0,0,1,29.86,8ZM23.94,20.71a1.29,1.29,0,0,0-.4-.94L19.77,16l3.77-3.77a1.28,1.28,0,0,0,.4-.94,1.31,1.31,0,0,0-.4-1L21.67,8.46a1.3,1.3,0,0,0-1-.4,1.28,1.28,0,0,0-.94.4L16,12.23,12.23,8.46a1.28,1.28,0,0,0-.94-.4,1.3,1.3,0,0,0-1,.4L8.46,10.33a1.31,1.31,0,0,0-.39,1,1.28,1.28,0,0,0,.39.94L12.23,16,8.46,19.77a1.28,1.28,0,0,0-.39.94,1.31,1.31,0,0,0,.39,1l1.88,1.87a1.3,1.3,0,0,0,1,.4,1.28,1.28,0,0,0,.94-.4L16,19.77l3.77,3.77a1.28,1.28,0,0,0,.94.4,1.3,1.3,0,0,0,1-.4l1.88-1.87A1.31,1.31,0,0,0,23.94,20.71Z"/></svg>