<svg id="Layer_1" data-name="Layer 1" xmlns="http://www.w3.org/2000/svg" viewBox="0 0 38 38"><defs><style>.cls-1{fill:#a7aaac;}</style></defs><title>icon_tutorial_light</title><path class="cls-1" d="M37.08,24.87a.58.58,0,0,1-.42.42l-6.2,2v6.49a.66.66,0,0,1-.28.55.62.62,0,0,1-.62.09l-6.19-2-3.82,5.26a.69.69,0,0,1-1.1,0l-3.82-5.26-6.2,2a.62.62,0,0,1-.62-.09.66.66,0,0,1-.28-.55V27.33l-6.2-2a.58.58,0,0,1-.42-.42A.66.66,0,0,1,1,24.25L4.83,19,1,13.73a.68.68,0,0,1-.08-.62.59.59,0,0,1,.42-.42l6.2-2V4.16a.66.66,0,0,1,.28-.55.62.62,0,0,1,.62-.08l6.2,2L18.45.26a.72.72,0,0,1,1.1,0l3.82,5.26,6.19-2a.62.62,0,0,1,.62.08.67.67,0,0,1,.28.55v6.49l6.2,2a.59.59,0,0,1,.42.42.67.67,0,0,1-.09.62L33.17,19,37,24.25A.66.66,0,0,1,37.08,24.87Zm-6.82-1.14a12.13,12.13,0,0,0,0-9.48,12.05,12.05,0,0,0-6.51-6.51,12.13,12.13,0,0,0-9.48,0,12.05,12.05,0,0,0-6.51,6.51,12.13,12.13,0,0,0,0,9.48,12.05,12.05,0,0,0,6.51,6.51,12.13,12.13,0,0,0,9.48,0,12.05,12.05,0,0,0,6.51-6.51Z"/></svg>