<svg id="Layer_1" data-name="Layer 1" xmlns="http://www.w3.org/2000/svg" viewBox="0 0 32 32"><defs><style>.cls-1{fill:#2e70b7;}</style></defs><title>icon_cta_text_message</title><path class="cls-1" d="M29.86,8A14.47,14.47,0,0,0,24,3.81a20.76,20.76,0,0,0-8-1.53,21.23,21.23,0,0,0-6.21.9A17.38,17.38,0,0,0,4.68,5.62,12.17,12.17,0,0,0,1.27,9.27,8.5,8.5,0,0,0,0,13.71a8.66,8.66,0,0,0,1.62,5A13.11,13.11,0,0,0,6,22.66,11.32,11.32,0,0,1,5.57,24q-.27.64-.48,1.05a7.28,7.28,0,0,1-.58.91q-.37.5-.55.71l-.62.68L2.79,28l-.14.16-.12.15-.11.16c-.06.09-.09.15-.08.17a.48.48,0,0,1,0,.18.23.23,0,0,0,0,.21v0a.9.9,0,0,0,.31.52.7.7,0,0,0,.54.16,13.48,13.48,0,0,0,2-.39A19.52,19.52,0,0,0,13.41,25a24.41,24.41,0,0,0,2.59.14,20.76,20.76,0,0,0,8-1.53,14.47,14.47,0,0,0,5.82-4.16A8.76,8.76,0,0,0,29.86,8ZM7.92,18.47a4.42,4.42,0,0,1-2.18-.55L6,17a3.91,3.91,0,0,0,2,.56c1.13,0,1.79-.6,1.79-1.46s-.46-1.26-1.61-1.7C6.77,13.91,5.91,13.18,5.91,12S7,9.66,8.68,9.66a3.88,3.88,0,0,1,1.89.42l-.3.9a3.4,3.4,0,0,0-1.62-.41c-1.17,0-1.61.7-1.61,1.28,0,.8.52,1.19,1.7,1.65,1.45.56,2.18,1.26,2.18,2.51S9.93,18.47,7.92,18.47Zm11.92-.13-.22-3.75c-.06-1.19-.14-2.63-.13-3.69h0c-.29,1-.65,2.07-1.08,3.25l-1.51,4.15H16l-1.38-4.07c-.41-1.21-.75-2.31-1-3.32h0c0,1.07-.09,2.5-.16,3.78l-.23,3.67H12.19l.6-8.55h1.41l1.46,4.13c.36,1.05.65,2,.86,2.88h0c.22-.86.52-1.8.9-2.88L19,9.8h1.41l.53,8.55Zm4.53.13a4.42,4.42,0,0,1-2.18-.55l.28-.93a3.91,3.91,0,0,0,2,.56c1.13,0,1.79-.6,1.79-1.46s-.46-1.26-1.61-1.7c-1.39-.49-2.26-1.22-2.26-2.42s1.1-2.32,2.76-2.32a3.88,3.88,0,0,1,1.89.42l-.3.9a3.4,3.4,0,0,0-1.62-.41c-1.17,0-1.61.7-1.61,1.28,0,.8.52,1.19,1.7,1.65,1.45.56,2.18,1.26,2.18,2.51S26.38,18.47,24.36,18.47Z"/></svg>