<svg id="Layer_1" data-name="Layer 1" xmlns="http://www.w3.org/2000/svg" viewBox="0 0 32 32"><defs><style>.cls-1{fill:#fff;}</style></defs><title>icon_cta_take_photo</title><path class="cls-1" d="M27.73,6.4A4.27,4.27,0,0,1,32,10.67V25.6a4.27,4.27,0,0,1-4.27,4.27H4.27a4.11,4.11,0,0,1-3-1.25A4.11,4.11,0,0,1,0,25.6V10.67a4.11,4.11,0,0,1,1.25-3,4.11,4.11,0,0,1,3-1.25H8l.85-2.27A3.1,3.1,0,0,1,10,2.72a3,3,0,0,1,1.72-.59h8.53A3,3,0,0,1,22,2.72a3.1,3.1,0,0,1,1.16,1.41L24,6.4Zm-17,17A7.19,7.19,0,0,0,16,25.6a7.19,7.19,0,0,0,5.28-2.19,7.19,7.19,0,0,0,2.19-5.28,7.19,7.19,0,0,0-2.19-5.27A7.19,7.19,0,0,0,16,10.67a7.19,7.19,0,0,0-5.27,2.19,7.19,7.19,0,0,0-2.19,5.27A7.19,7.19,0,0,0,10.73,23.41Zm1.88-8.67a4.79,4.79,0,0,1,6.78,0,4.79,4.79,0,0,1,0,6.78,4.79,4.79,0,0,1-6.78,0,4.79,4.79,0,0,1,0-6.78Z"/></svg>