<svg id="Layer_1" data-name="Layer 1" xmlns="http://www.w3.org/2000/svg" viewBox="0 0 32 32"><defs><style>.cls-1{fill:#0071ce;}</style></defs><title>icon_cta_consent_agree</title><path class="cls-1" d="M29.86,8A15.66,15.66,0,0,1,32,16a15.66,15.66,0,0,1-2.14,8A16,16,0,0,1,24,29.85,15.66,15.66,0,0,1,16,32a15.65,15.65,0,0,1-8-2.15A15.92,15.92,0,0,1,2.15,24,15.64,15.64,0,0,1,0,16,15.64,15.64,0,0,1,2.15,8,15.91,15.91,0,0,1,8,2.15,15.64,15.64,0,0,1,16,0a15.65,15.65,0,0,1,8,2.15A15.94,15.94,0,0,1,29.86,8Zm-3.11,4.66a1.3,1.3,0,0,0-.37-1l-1.9-1.88a1.31,1.31,0,0,0-1.88,0l-8.5,8.48L9.4,13.56a1.31,1.31,0,0,0-1.88,0l-1.9,1.87a1.3,1.3,0,0,0-.37,1,1.27,1.27,0,0,0,.37.94l7.54,7.54a1.28,1.28,0,0,0,.94.4,1.31,1.31,0,0,0,1-.4L26.38,13.56A1.28,1.28,0,0,0,26.75,12.62Z"/></svg>