<svg id="Layer_1" data-name="Layer 1" xmlns="http://www.w3.org/2000/svg" viewBox="0 0 32 32"><defs><style>.cls-1{fill:#2c70b7;}</style></defs><title>icon_cta_confirm_photos</title><path class="cls-1" d="M8.32,14.72v12.8A1.3,1.3,0,0,1,7,28.8H1.28a1.23,1.23,0,0,1-.9-.38,1.23,1.23,0,0,1-.38-.9V14.72a1.23,1.23,0,0,1,.38-.9,1.23,1.23,0,0,1,.9-.38H7a1.3,1.3,0,0,1,1.28,1.28ZM5.12,25a1.23,1.23,0,0,0-.38-.9,1.27,1.27,0,0,0-1.81,0,1.29,1.29,0,0,0,0,1.81,1.24,1.24,0,0,0,.91.37,1.24,1.24,0,0,0,.9-.37A1.22,1.22,0,0,0,5.12,25ZM32,14.72a4.39,4.39,0,0,1-1.1,3,4.84,4.84,0,0,1,.3,1.52A4.15,4.15,0,0,1,30.34,22a4.12,4.12,0,0,1,0,2.34,3.89,3.89,0,0,1-1.08,1.88,4.81,4.81,0,0,1-1,3.62,5,5,0,0,1-3.94,1.56H21.76A14.82,14.82,0,0,1,18.88,31q-1.56-.31-2.43-.58L14,29.68a14.62,14.62,0,0,0-3.16-.88,1.32,1.32,0,0,1-.9-.39,1.2,1.2,0,0,1-.38-.89V14.7a1.21,1.21,0,0,1,.36-.87,1.32,1.32,0,0,1,.86-.41q.48,0,1.52-1.18t2-2.42a29.53,29.53,0,0,1,2-2.4,3.09,3.09,0,0,0,.62-1,6.47,6.47,0,0,0,.35-1q.09-.37.27-1.21t.25-1.22a5.88,5.88,0,0,1,.39-1,3.47,3.47,0,0,1,.68-1,1.23,1.23,0,0,1,.9-.38,6,6,0,0,1,1.65.21,4.35,4.35,0,0,1,1.2.52,2.81,2.81,0,0,1,.8.81,4.68,4.68,0,0,1,.48.9,5,5,0,0,1,.24,1,8.92,8.92,0,0,1,.1.9q0,.3,0,.78a6.23,6.23,0,0,1-.19,1.52,8.23,8.23,0,0,1-.38,1.2q-.19.44-.55,1.12L23,10a3.18,3.18,0,0,0-.22.44,4.75,4.75,0,0,0-.16.48h5.54A3.89,3.89,0,0,1,32,14.72Z"/></svg>