<svg id="Layer_1" data-name="Layer 1" xmlns="http://www.w3.org/2000/svg" viewBox="0 0 38 38"><defs><style>.cls-1{fill:#a7aaac;}.cls-2{fill:none;stroke:#a7aaac;stroke-miterlimit:10;stroke-width:1.89px;}</style></defs><title>icon_tutorial_flash</title><path class="cls-1" d="M25.21,14.65a.49.49,0,0,1,.09.57l-7,15a.57.57,0,0,1-.54.32l-.18,0a.55.55,0,0,1-.33-.25.49.49,0,0,1-.06-.39L19.75,19.4,14.5,20.7h-.16a.6.6,0,0,1-.4-.14.48.48,0,0,1-.17-.5L16.38,9.4a.55.55,0,0,1,.21-.3A.58.58,0,0,1,16.95,9h4.24a.58.58,0,0,1,.41.16.51.51,0,0,1,.17.38.53.53,0,0,1-.06.23l-2.21,6,5.12-1.27.16,0A.61.61,0,0,1,25.21,14.65Z"/><g id="_Group_" data-name="&lt;Group&gt;"><path class="cls-1" d="M19,6.73A12.27,12.27,0,1,1,6.73,19,12.29,12.29,0,0,1,19,6.73m0-1.89A14.17,14.17,0,1,0,33.17,19,14.17,14.17,0,0,0,19,4.83Z"/></g><line class="cls-2" x1="9.88" y1="8.96" x2="29.08" y2="28.17"/></svg>